<svg xmlns="http://www.w3.org/2000/svg" viewBox="0 0 512 512" width="512" height="512">
  <!-- Circular background -->
  <circle cx="256" cy="256" r="256" fill="#ffffff"/>
  <!-- Font Awesome Free 6.4.0 by @fontawesome - https://fontawesome.com License - https://fontawesome.com/license (Commercial License) Copyright 2023 Fonticons, Inc. -->
  <g transform="translate(256, 256) scale(0.7)">
    <path d="M-128 0c30.9 0 56 25.1 56 56V456c0 30.9-25.1 56-56 56c-28.9 0-52.7-21.9-55.7-50.1c-5.2 1.4-10.7 2.1-16.3 2.1c-35.3 0-64-28.7-64-64c0-7.4 1.3-14.6 3.6-21.2C-279.6 367.4-301 338.2-301 304c0-31.9 18.7-59.5 45.8-72.3C-263.9 220.8-269 207-269 192c0-30.7 21.6-56.3 50.4-62.6C-220.2 123.9-221 118-221 112c0-29.9 20.6-55.1 48.3-61.9C-169.7 21.9-145.9 0-117 0zM40 0c28.9 0 52.6 21.9 55.7 50.1c27.7 6.8 48.3 32 48.3 61.9c0 6-.8 11.9-2.4 17.4c28.8 6.2 50.4 31.9 50.4 62.6c0 15-5.1 28.8-13.8 39.7C205.3 244.5 224 272.1 224 304c0 34.2-21.4 63.4-51.6 74.8c2.3 6.6 3.6 13.8 3.6 21.2c0 35.3-28.7 64-64 64c-5.6 0-11.1-.7-16.3-2.1c-3 28.2-26.8 50.1-55.7 50.1c-30.9 0-56-25.1-56-56V56c0-30.9 25.1-56 56-56z" fill="#4f46e5"/>
  </g>
</svg> 